# xmcd
#
# Track frame offsets:
#	150
#	12860
#	25644
#	37399
#	54382
#	69222
#	90310
#	102638
#	116939
#	132668
#	146201
#	160821
#
# Disc length: 2326 seconds
#
# Revision: 1
# Processed by: cddbd v1.5.2PL0 Copyright (c) Steve Scherf et al.
# Submitted via: audiograbber 1.83.01
#
DISCID=a809140c
DTITLE=The Viking Truckers - 21st Century Cowboy
DYEAR=2009
DGENRE=Country
TTITLE0=Love on the Road
TTITLE1=Truckstop mama
TTITLE2=Overnight express
TTITLE3=Six days on the road
TTITLE4=21st Century Cowboy
TTITLE5=Golden guitar
TTITLE6=Long legged southern lady
TTITLE7=Eastbound and down
TTITLE8=I´m a viking trucker
TTITLE9=To heaven in a truck
TTITLE10=Truckdriving gang
TTITLE11=Spacetruck
EXTD=
EXTT0=
EXTT1=
EXTT2=
EXTT3=
EXTT4=
EXTT5=
EXTT6=
EXTT7=
EXTT8=
EXTT9=
EXTT10=
EXTT11=
PLAYORDER=
